<?xml version="1.0" encoding="utf-8"?>
<!-- Generator: Adobe Illustrator 22.1.0, SVG Export Plug-In . SVG Version: 6.00 Build 0)  -->
<svg version="1.1" id="Layer_1" xmlns="http://www.w3.org/2000/svg" xmlns:xlink="http://www.w3.org/1999/xlink" x="0px" y="0px"
	 viewBox="0 0 750 700" style="enable-background:new 0 0 500 500;" xml:space="preserve">
<style type="text/css">
	.st0{clip-path:url(#SVGID_2_);}
	.st1{fill:url(#SVGID_3_);}
	.st2{display:none;opacity:5.000000e-02;}
	.st3{display:inline;}
	.st4{fill:#F1F2F2;}
	.st5{opacity:5.000000e-02;clip-path:url(#SVGID_2_);}
	.st6{fill:#FFFFFF;}
</style>
<g>
	<g>
		<g>
			<defs>
				<rect id="SVGID_1_" x="-0.7" width="900.7" height="500.7"/>
			</defs>
			<clipPath id="SVGID_2_">
				<use xlink:href="#SVGID_1_"  style="overflow:visible;"/>
			</clipPath>
			<g class="st0">
				
					<linearGradient id="SVGID_3_" gradientUnits="userSpaceOnUse" x1="78.6578" y1="1182.1827" x2="420.6422" y2="1774.5172" gradientTransform="matrix(1 0 0 1 0 -1228)">
					<stop  offset="0" style="stop-color:#696969"/>
					<stop  offset="1" style="stop-color:#000000"/>
				</linearGradient>
				<rect x="-0.7" class="st1" width="900.7" height="500.7"/>
				<g class="st2">
					<g class="st3">
						<path class="st4" d="M274.1,328.6c-5.4,0-10,1.9-13.8,5.7c-3.8,3.8-5.7,8.3-5.7,13.6V429c0,5.4,1.9,10,5.7,13.8
							s8.4,5.7,13.8,5.7s10-1.9,13.7-5.7c3.7-3.8,5.6-8.4,5.6-13.8v-81.1c0-5.3-1.9-9.8-5.7-13.6S279.4,328.6,274.1,328.6z"/>
						<path class="st4" d="M300.9,457.7c0,5.8,2,10.7,6,14.7s8.9,6,14.7,6h14l0.2,42.8c0,5.4,1.9,10,5.7,13.8
							c3.8,3.8,8.3,5.7,13.6,5.7c5.4,0,10-1.9,13.8-5.7s5.7-8.4,5.7-13.8v-42.8h26v42.8c0,5.4,1.9,10,5.7,13.8
							c3.8,3.8,8.4,5.7,13.8,5.7s10-1.9,13.8-5.7s5.7-8.4,5.7-13.8v-42.8h14.1c5.7,0,10.5-2,14.5-6s6-8.9,6-14.7V332.2H300.9V457.7z
							"/>
						<path class="st4" d="M430.2,255.8l13.4-24.7c0.9-1.6,0.6-2.9-0.9-3.8c-1.6-0.8-2.9-0.4-3.8,1.1l-13.6,24.9
							c-11.9-5.3-24.6-7.9-37.9-7.9s-26,2.6-37.9,7.9l-13.6-24.9c-0.9-1.5-2.1-1.9-3.8-1.1c-1.5,0.9-1.8,2.1-0.9,3.8l13.4,24.7
							c-13.6,6.9-24.4,16.6-32.4,28.9c-8,12.4-12.1,25.9-12.1,40.6h174.4c0-14.7-4-28.2-12.1-40.6
							C454.4,272.4,443.6,262.8,430.2,255.8z M352.8,291.8c-1.4,1.4-3.2,2.2-5.2,2.2s-3.7-0.7-5.1-2.2c-1.4-1.4-2.1-3.2-2.1-5.2
							s0.7-3.7,2.1-5.2c1.4-1.4,3.1-2.2,5.1-2.2s3.7,0.7,5.2,2.2c1.4,1.4,2.2,3.2,2.2,5.2C355,288.6,354.2,290.3,352.8,291.8z
							 M432.3,291.8c-1.4,1.4-3.1,2.2-5.1,2.2s-3.7-0.7-5.2-2.2c-1.4-1.4-2.2-3.2-2.2-5.2s0.7-3.7,2.2-5.2c1.4-1.4,3.2-2.2,5.2-2.2
							s3.7,0.7,5.1,2.2c1.4,1.4,2.1,3.2,2.1,5.2C434.3,288.6,433.6,290.3,432.3,291.8z"/>
						<path class="st4" d="M514.4,334.2c-3.8-3.7-8.4-5.6-13.8-5.6c-5.3,0-9.8,1.9-13.6,5.6c-3.8,3.7-5.7,8.3-5.7,13.7V429
							c0,5.4,1.9,10,5.7,13.8c3.8,3.8,8.3,5.7,13.6,5.7c5.4,0,10-1.9,13.8-5.7c3.8-3.8,5.7-8.4,5.7-13.8v-81.1
							C520.1,342.4,518.2,337.9,514.4,334.2z"/>
					</g>
				</g>
				<g class="st2">
					<g class="st3">
						<path class="st4" d="M-44.9,400.5c-3.5,0-6.5,1.2-8.9,3.7s-3.7,5.4,6.3-11.2v52.7c-10,23.5-8.8,26.5-6.3,28.9
							c2.4,2.5,5.4,3.7,8.9,3.7s6.5-1.2,8.9-3.7s3.6-5.4,3.6-8.9V413c0-3.4-1.2-6.4-3.7-8.8C-38.5,401.8-41.5,400.5-44.9,400.5z"/>
						<path class="st4" d="M-17.5,464.5c0,3.8,1.3,6.9,3.9,9.6c2.6,2.6,5.8,3.9,9.6,3.9h9l0.1,27.8c0,3.5,1.2,6.5,3.7,8.9
							c2.4,2.5,5.4,3.7,8.8,3.7c3.5,0,6.5-1.2,8.9-3.7c2.5-2.5,3.7-5.4,3.7-8.9V478h16.9v27.8c0,3.5,1.2,6.5,3.7,8.9
							c2.5,2.5,5.4,3.7,8.9,3.7c3.5,0,6.5-1.2,8.9-3.7s3.7-5.4,3.7-8.9V478h9.2c3.7,0,6.8-1.3,9.4-3.9s3.9-5.8,3.9-9.6v-81.6H-17.5
							V464.5z"/>
						<path class="st4" d="M66.5,333.3l8.7-16c0.6-1.1,0.4-1.9-0.6-2.4c-1.1-0.5-1.9-0.2-2.4,0.7l-8.8,16.2
							c-7.8-3.4-16-5.1-24.6-5.1c-8.7,0-16.9,1.7-24.6,5.1l-8.8-16.2c-0.6-1-1.4-1.2-2.4-0.7c-1,0.6-1.2,1.4-0.6,2.4l8.7,16
							c-8.8,4.5-15.8,10.8-21.1,18.8c-5.2,8-7.8,16.8-7.8,26.4H95.3c0-9.6-2.6-18.4-7.8-26.4C82.2,344,75.3,337.7,66.5,333.3z
							 M16.2,356.6c-0.9,0.9-2.1,1.4-3.4,1.4s-2.4-0.5-3.3-1.4c-0.9-0.9-1.3-2.1-1.3-3.4s0.5-2.4,1.3-3.4c0.9-0.9,2-1.4,3.3-1.4
							s2.4,0.5,3.4,1.4c0.9,0.9,1.4,2.1,1.4,3.4S17.2,355.7,16.2,356.6z M67.9,356.6c-0.9,0.9-2,1.4-3.3,1.4c-1.3,0-2.4-0.5-3.4-1.4
							c-0.9-0.9-1.4-2.1-1.4-3.4s0.5-2.4,1.4-3.4c0.9-0.9,2.1-1.4,3.4-1.4s2.4,0.5,3.3,1.4s1.3,2.1,1.3,3.4
							C69.2,354.5,68.8,355.7,67.9,356.6z"/>
						<path class="st4" d="M121.3,384.2c-2.4-2.4-5.4-3.6-8.9-3.6c-3.4,0-6.4,1.2-8.8,3.6c-2.5,2.4-3.7,5.4-3.7,8.9v52.7
							c0,3.5,1.2,6.5,3.7,8.9c2.4,2.5,5.4,3.7,8.8,3.7c3.5,0,6.5-1.2,8.9-3.7c2.5-2.5,3.7-5.4,3.7-8.9V393
							C125,389.5,123.7,386.6,121.3,384.2z"/>
					</g>
				</g>
			</g>
			<g class="st5">
				<path class="st6" d="M540,290.4c-13.9-23.8-32.8-42.7-56.6-56.6c-23.8-13.9-49.9-20.9-78.1-20.9c-28.2,0-54.3,7-78.1,20.9
					c-23.8,13.9-42.7,32.8-56.6,56.6c-13.9,23.8-20.9,49.9-20.9,78.1c0,33.9,9.9,64.4,29.7,91.5c19.8,27.1,45.3,45.8,76.7,56.2
					c3.6,0.7,6.3,0.2,8.1-1.4c1.8-1.6,2.6-3.6,2.6-6.1c0-0.4,0-4.1-0.1-10.9c-0.1-6.9-0.1-12.9-0.1-18l-4.7,0.8
					c-3,0.5-6.7,0.8-11.2,0.7c-4.5-0.1-9.2-0.5-14.1-1.4c-4.9-0.9-9.4-2.9-13.6-6.1c-4.2-3.2-7.2-7.3-8.9-12.5l-2-4.7
					c-1.4-3.1-3.5-6.6-6.4-10.3c-2.9-3.8-5.8-6.3-8.8-7.7l-1.4-1c-0.9-0.7-1.8-1.5-2.6-2.4c-0.8-0.9-1.4-1.9-1.8-2.8
					c-0.4-0.9-0.1-1.7,1-2.3s3-0.9,5.9-0.9l4.1,0.6c2.7,0.5,6,2.2,10,4.9c4,2.7,7.3,6.2,9.8,10.5c3.1,5.5,6.9,9.8,11.2,12.7
					c4.4,2.9,8.8,4.4,13.3,4.4c4.5,0,8.3-0.3,11.5-1c3.2-0.7,6.3-1.7,9.1-3c1.2-9.1,4.5-16,9.9-20.9c-7.7-0.8-14.6-2-20.8-3.6
					c-6.1-1.6-12.5-4.3-19-7.9c-6.6-3.6-12-8.2-16.3-13.6c-4.3-5.4-7.9-12.5-10.6-21.3c-2.8-8.8-4.2-18.9-4.2-30.4
					c0-16.3,5.3-30.3,16-41.7c-5-12.3-4.5-26.1,1.4-41.3c3.9-1.2,9.7-0.3,17.4,2.7c7.7,3,13.3,5.6,16.9,7.8c3.6,2.2,6.4,4,8.6,5.5
					c12.6-3.5,25.5-5.3,38.9-5.3c13.4,0,26.3,1.8,38.9,5.3l7.7-4.9c5.3-3.2,11.5-6.2,18.6-8.9c7.2-2.7,12.6-3.4,16.4-2.2
					c6.1,15.3,6.6,29,1.6,41.3c10.7,11.5,16,25.4,16,41.7c0,11.5-1.4,21.6-4.2,30.5c-2.8,8.8-6.3,15.9-10.7,21.3
					c-4.4,5.3-9.9,9.8-16.4,13.5c-6.6,3.6-12.9,6.3-19,7.9c-6.1,1.6-13.1,2.8-20.8,3.7c7,6.1,10.5,15.7,10.5,28.8v42.7
					c0,2.4,0.8,4.5,2.5,6.1c1.7,1.6,4.4,2.1,8,1.4c31.3-10.4,56.9-29.1,76.7-56.2c19.8-27.1,29.7-57.6,29.7-91.5
					C560.8,340.2,553.9,314.2,540,290.4z"/>
			</g>
			<g class="st5">
				<path class="st6" d="M122.9,402.4c-7-12-16.5-21.4-28.4-28.4c-12-7-25-10.5-39.2-10.5c-14.2,0-27.2,3.5-39.2,10.5
					c-12,7-21.4,16.5-28.4,28.4c-7,12-10.5,25-10.5,39.2c0,17,5,32.3,14.9,45.9c9.9,13.6,22.8,23,38.5,28.2c1.8,0.3,3.2,0.1,4.1-0.7
					c0.9-0.8,1.3-1.8,1.3-3.1c0-0.2,0-2-0.1-5.5c0-3.5-0.1-6.5-0.1-9.1l-2.3,0.4c-1.5,0.3-3.4,0.4-5.6,0.4c-2.3,0-4.6-0.3-7.1-0.7
					c-2.4-0.4-4.7-1.5-6.8-3c-2.1-1.6-3.6-3.7-4.5-6.3l-1-2.3c-0.7-1.6-1.7-3.3-3.2-5.2c-1.5-1.9-2.9-3.2-4.4-3.9l-0.7-0.5
					c-0.5-0.3-0.9-0.7-1.3-1.2c-0.4-0.5-0.7-0.9-0.9-1.4c-0.2-0.5,0-0.9,0.5-1.2s1.5-0.5,3-0.5l2,0.3c1.4,0.3,3,1.1,5,2.4
					c2,1.4,3.6,3.1,4.9,5.3c1.6,2.8,3.4,4.9,5.6,6.4c2.2,1.5,4.4,2.2,6.7,2.2s4.2-0.2,5.8-0.5c1.6-0.3,3.2-0.8,4.6-1.5
					c0.6-4.5,2.3-8,5-10.5c-3.9-0.4-7.3-1-10.4-1.8c-3.1-0.8-6.3-2.1-9.6-4c-3.3-1.8-6-4.1-8.2-6.8c-2.2-2.7-4-6.3-5.3-10.7
					c-1.4-4.4-2.1-9.5-2.1-15.3c0-8.2,2.7-15.2,8-21c-2.5-6.2-2.3-13.1,0.7-20.8c2-0.6,4.9-0.2,8.7,1.4c3.9,1.5,6.7,2.8,8.5,3.9
					c1.8,1.1,3.2,2,4.3,2.7c6.3-1.8,12.8-2.6,19.5-2.6s13.2,0.9,19.5,2.6l3.9-2.4c2.6-1.6,5.8-3.1,9.4-4.5c3.6-1.4,6.3-1.7,8.2-1.1
					c3.1,7.7,3.3,14.6,0.8,20.8c5.4,5.8,8,12.8,8,21c0,5.8-0.7,10.9-2.1,15.3c-1.4,4.4-3.2,8-5.4,10.7c-2.2,2.7-5,4.9-8.2,6.8
					c-3.3,1.8-6.5,3.2-9.6,4c-3.1,0.8-6.6,1.4-10.4,1.8c3.5,3.1,5.3,7.9,5.3,14.4V512c0,1.2,0.4,2.2,1.3,3.1c0.8,0.8,2.2,1.1,4,0.7
					c15.7-5.2,28.6-14.6,38.5-28.2c9.9-13.6,14.9-28.9,14.9-45.9C133.4,427.4,129.9,414.4,122.9,402.4z"/>
			</g>
		</g>
	</g>
</g>
</svg>
